<svg xmlns="http://www.w3.org/2000/svg" width="840" height="320" viewBox="0 0 840 320">
  <rect width="840" height="320" rx="6" fill="#0d1117" stroke="#30363d" stroke-width="1"/>
  
        <line x1="60" y1="260.0" x2="810" y2="260.0" stroke="#21262d" stroke-width="1" stroke-dasharray="4,4"/><line x1="60" y1="210.0" x2="810" y2="210.0" stroke="#21262d" stroke-width="1" stroke-dasharray="4,4"/><text x="52" y="214.0" text-anchor="end" fill="#8b949e" font-size="11" font-family="ui-monospace,monospace">56.0mins</text><line x1="60" y1="160.0" x2="810" y2="160.0" stroke="#21262d" stroke-width="1" stroke-dasharray="4,4"/><text x="52" y="164.0" text-anchor="end" fill="#8b949e" font-size="11" font-family="ui-monospace,monospace">1.9h</text><line x1="60" y1="110.0" x2="810" y2="110.0" stroke="#21262d" stroke-width="1" stroke-dasharray="4,4"/><text x="52" y="114.0" text-anchor="end" fill="#8b949e" font-size="11" font-family="ui-monospace,monospace">2.8h</text><line x1="60" y1="60.0" x2="810" y2="60.0" stroke="#21262d" stroke-width="1" stroke-dasharray="4,4"/><text x="52" y="64.0" text-anchor="end" fill="#8b949e" font-size="11" font-family="ui-monospace,monospace">3.7h</text>
        <rect x="60.0" y="257.3" width="21.1" height="2.7" rx="4" fill="#58a6ff" opacity="0.9"><title>Apr 26: 3.1mins avg (9 turns)</title></rect><rect x="85.1" y="257.9" width="21.1" height="2.1" rx="4" fill="#58a6ff" opacity="0.9"><title>Apr 27: 2.3mins avg (93 turns)</title></rect><rect x="110.3" y="256.3" width="21.1" height="3.7" rx="4" fill="#58a6ff" opacity="0.9"><title>Apr 28: 4.1mins avg (93 turns)</title></rect><rect x="135.4" y="256.0" width="21.1" height="4.0" rx="4" fill="#58a6ff" opacity="0.9"><title>Apr 29: 4.5mins avg (31 turns)</title></rect><rect x="160.5" y="241.8" width="21.1" height="18.2" rx="4" fill="#58a6ff" opacity="0.9"><title>Apr 30: 20.4mins avg (67 turns)</title></rect><rect x="185.7" y="247.6" width="21.1" height="12.4" rx="4" fill="#58a6ff" opacity="0.9"><title>May 1: 13.9mins avg (68 turns)</title></rect><rect x="210.8" y="257.4" width="21.1" height="2.6" rx="4" fill="#58a6ff" opacity="0.9"><title>May 2: 2.9mins avg (13 turns)</title></rect><rect x="261.1" y="256.6" width="21.1" height="3.4" rx="4" fill="#58a6ff" opacity="0.9"><title>May 4: 3.8mins avg (89 turns)</title></rect><rect x="286.2" y="256.0" width="21.1" height="4.0" rx="4" fill="#58a6ff" opacity="0.9"><title>May 5: 4.5mins avg (68 turns)</title></rect><rect x="311.3" y="256.7" width="21.1" height="3.3" rx="4" fill="#58a6ff" opacity="0.9"><title>May 6: 3.7mins avg (156 turns)</title></rect><rect x="336.5" y="253.1" width="21.1" height="6.9" rx="4" fill="#58a6ff" opacity="0.9"><title>May 7: 7.8mins avg (142 turns)</title></rect><rect x="361.6" y="253.9" width="21.1" height="6.1" rx="4" fill="#58a6ff" opacity="0.9"><title>May 8: 6.8mins avg (145 turns)</title></rect><rect x="386.7" y="246.9" width="21.1" height="13.1" rx="4" fill="#58a6ff" opacity="0.9"><title>May 9: 14.7mins avg (6 turns)</title></rect><rect x="411.9" y="210.7" width="21.1" height="49.3" rx="4" fill="#58a6ff" opacity="0.9"><title>May 10: 55.3mins avg (25 turns)</title></rect><rect x="437.0" y="250.8" width="21.1" height="9.2" rx="4" fill="#58a6ff" opacity="0.9"><title>May 11: 10.3mins avg (96 turns)</title></rect><rect x="462.1" y="251.5" width="21.1" height="8.5" rx="4" fill="#58a6ff" opacity="0.9"><title>May 12: 9.6mins avg (90 turns)</title></rect><rect x="487.3" y="254.4" width="21.1" height="5.6" rx="4" fill="#58a6ff" opacity="0.9"><title>May 13: 6.2mins avg (97 turns)</title></rect><rect x="512.4" y="241.3" width="21.1" height="18.7" rx="4" fill="#58a6ff" opacity="0.9"><title>May 14: 20.9mins avg (58 turns)</title></rect><rect x="537.5" y="242.1" width="21.1" height="17.9" rx="4" fill="#58a6ff" opacity="0.9"><title>May 15: 20.0mins avg (22 turns)</title></rect><rect x="562.7" y="254.0" width="21.1" height="6.0" rx="4" fill="#58a6ff" opacity="0.9"><title>May 16: 6.8mins avg (43 turns)</title></rect><rect x="587.8" y="255.8" width="21.1" height="4.2" rx="4" fill="#58a6ff" opacity="0.9"><title>May 17: 4.7mins avg (48 turns)</title></rect><rect x="612.9" y="252.7" width="21.1" height="7.3" rx="4" fill="#58a6ff" opacity="0.9"><title>May 18: 8.2mins avg (148 turns)</title></rect><rect x="638.1" y="248.6" width="21.1" height="11.4" rx="4" fill="#58a6ff" opacity="0.9"><title>May 19: 12.8mins avg (282 turns)</title></rect><rect x="663.2" y="253.5" width="21.1" height="6.5" rx="4" fill="#58a6ff" opacity="0.9"><title>May 20: 7.3mins avg (311 turns)</title></rect><rect x="688.3" y="251.1" width="21.1" height="8.9" rx="4" fill="#58a6ff" opacity="0.9"><title>May 21: 10.0mins avg (132 turns)</title></rect><rect x="713.5" y="238.9" width="21.1" height="21.1" rx="4" fill="#58a6ff" opacity="0.9"><title>May 22: 23.6mins avg (121 turns)</title></rect><rect x="738.6" y="60.0" width="21.1" height="200.0" rx="4" fill="#58a6ff" opacity="0.9"><title>May 23: 3.7h avg (21 turns)</title></rect><rect x="788.9" y="250.0" width="21.1" height="10.0" rx="4" fill="#58a6ff" opacity="0.9"><title>May 25: 11.2mins avg (8 turns)</title></rect>
        <text x="70.6" y="280.0" text-anchor="middle" fill="#8b949e" font-size="11" font-family="-apple-system,BlinkMacSystemFont,Segoe UI,Helvetica,Arial,sans-serif">Apr 26</text><text x="196.2" y="280.0" text-anchor="middle" fill="#8b949e" font-size="11" font-family="-apple-system,BlinkMacSystemFont,Segoe UI,Helvetica,Arial,sans-serif">May 1</text><text x="321.9" y="280.0" text-anchor="middle" fill="#8b949e" font-size="11" font-family="-apple-system,BlinkMacSystemFont,Segoe UI,Helvetica,Arial,sans-serif">May 6</text><text x="447.6" y="280.0" text-anchor="middle" fill="#8b949e" font-size="11" font-family="-apple-system,BlinkMacSystemFont,Segoe UI,Helvetica,Arial,sans-serif">May 11</text><text x="573.2" y="280.0" text-anchor="middle" fill="#8b949e" font-size="11" font-family="-apple-system,BlinkMacSystemFont,Segoe UI,Helvetica,Arial,sans-serif">May 16</text><text x="698.9" y="280.0" text-anchor="middle" fill="#8b949e" font-size="11" font-family="-apple-system,BlinkMacSystemFont,Segoe UI,Helvetica,Arial,sans-serif">May 21</text><text x="799.4" y="280.0" text-anchor="middle" fill="#8b949e" font-size="11" font-family="-apple-system,BlinkMacSystemFont,Segoe UI,Helvetica,Arial,sans-serif">May 25</text>
        <text x="60" y="22" fill="#f0f6fc" font-size="16" font-weight="600"
              font-family="-apple-system,BlinkMacSystemFont,Segoe UI,Helvetica,Arial,sans-serif">
            ⏱ Avg. Turn Duration · Last 30 Days
        </text>
        <text x="60" y="42" fill="#8b949e" font-size="11" font-family="-apple-system,BlinkMacSystemFont,Segoe UI,Helvetica,Arial,sans-serif">Avg</text><text x="60" y="55" fill="#c9d1d9" font-size="13" font-weight="600" font-family="ui-monospace,monospace">11.0mins</text><text x="180" y="42" fill="#8b949e" font-size="11" font-family="-apple-system,BlinkMacSystemFont,Segoe UI,Helvetica,Arial,sans-serif">Median</text><text x="180" y="55" fill="#c9d1d9" font-size="13" font-weight="600" font-family="ui-monospace,monospace">1.4mins</text><text x="300" y="42" fill="#8b949e" font-size="11" font-family="-apple-system,BlinkMacSystemFont,Segoe UI,Helvetica,Arial,sans-serif">P90</text><text x="300" y="55" fill="#c9d1d9" font-size="13" font-weight="600" font-family="ui-monospace,monospace">14.3mins</text><text x="420" y="42" fill="#8b949e" font-size="11" font-family="-apple-system,BlinkMacSystemFont,Segoe UI,Helvetica,Arial,sans-serif">Turns</text><text x="420" y="55" fill="#c9d1d9" font-size="13" font-weight="600" font-family="ui-monospace,monospace">2626</text>
        <text x="810" y="312" text-anchor="end"
              fill="#8b949e" font-size="10"
              font-family="-apple-system,BlinkMacSystemFont,Segoe UI,Helvetica,Arial,sans-serif">
            generated by turntime
        </text>
        
</svg>